# xmcd
#
# Track frame offsets:
#	150
#	14110
#	36927
#	52917
#	69847
#	85779
#	103320
#	125490
#	145430
#	160877
#	180000
#	196192
#
# Disc length: 2866 seconds
#
# Revision: 3
# Processed by: cddbd v1.5.2PL0 Copyright (c) Steve Scherf et al.
# Submitted via: EasyCDDAExtractor 15.3.0.1
#
DISCID=9d0b300c
DTITLE=Juanes - Fijate Bien
DYEAR=2000
DGENRE=Latin
TTITLE0=Ahi Le Va
TTITLE1=Para Ser Eterno
TTITLE2=Volcan
TTITLE3=Podemos Hacernos Daño
TTITLE4=Destino
TTITLE5=Nada
TTITLE6=Fijate Bien
TTITLE7=Vulnerable
TTITLE8=Soñador
TTITLE9=Ficcion
TTITLE10=Para Que
TTITLE11=Me Da Igual
EXTD=
EXTT0=
EXTT1=
EXTT2=
EXTT3=
EXTT4=
EXTT5=
EXTT6=
EXTT7=
EXTT8=
EXTT9=
EXTT10=
EXTT11=
PLAYORDER=
